# xmcd CD database file
#
# Track frame offsets:
#	150
#	15371
#	30101
#	51455
#	69127
#	87005
#	102881
#	119100
#	133308
#	147256
#	175608
#	191599
#
# Disc length: 2717 seconds
#
# Revision: 0
# Processed by: cddbd v1.5.2PL0 Copyright (c) Steve Scherf et al.
# Submitted via: CDex 1.51
#
DISCID=9a0a9b0c
DTITLE=Maria Muldaur - Naughty, Bawdy and Blue
DYEAR=2007
DGENRE=Blues
TTITLE0=Down Home Blues
TTITLE1=Up The Country Blues
TTITLE2=Separation Blues (with Bonnie Raitt)
TTITLE3=A Good Man Is Hard To Find
TTITLE4=Handy Man
TTITLE5=New Orleans Hop Scop Blues
TTITLE6=Smile
TTITLE7=TB Blues
TTITLE8=One-Hour Mama
TTITLE9=Empty Bed Blues
TTITLE10=Early Every Morn
TTITLE11=Yonder Come The Blues
EXTD=YEAR: 2007
EXTT0=
EXTT1=
EXTT2=
EXTT3=
EXTT4=
EXTT5=
EXTT6=
EXTT7=
EXTT8=
EXTT9=
EXTT10=
EXTT11=
PLAYORDER=
